# xmcd CD database file
#
# Track frame offsets:
#	150
#	14384
#	40836
#	54517
#	74709
#	92804
#	102798
#	133348
#	146549
#	163644
#	175395
#	193868
#	210578
#	228558
#	250596
#	280286
#	292864
#	310410
#
# Disc length: 4287 seconds
#
# Revision: 0
# Processed by: cddbd v1.5.2PL0 Copyright (c) Steve Scherf et al.
# Submitted via: CDex 1.60beta1
#
DISCID=0f10bd12
DTITLE=Ivory and Gold - Autumn Leaves
DYEAR=2006
DGENRE=Jazz
TTITLE0=Ain't Misbehavin'
TTITLE1=Evangeline
TTITLE2=Pine Apple Rag
TTITLE3=Black Orpheus
TTITLE4=Louisiana Fairy Tale
TTITLE5=Rubber Plant Rag
TTITLE6=Emily/Alice in Wonderland
TTITLE7=Ain'tcha Glad
TTITLE8=The Shadow of Your Smile
TTITLE9=Gasoline Rag
TTITLE10=Autumn Leaves
TTITLE11=As Time Goes By
TTITLE12=Chega De Saudade (No More Blues)
TTITLE13=Pennies From Heaven
TTITLE14=Water From an Ancient Well
TTITLE15=I've Got Rhythm
TTITLE16=Blue Autumn
TTITLE17=Kansas City Rag
EXTD=YEAR: 2006
EXTT0=
EXTT1=
EXTT2=
EXTT3=
EXTT4=
EXTT5=
EXTT6=
EXTT7=
EXTT8=
EXTT9=
EXTT10=
EXTT11=
EXTT12=
EXTT13=
EXTT14=
EXTT15=
EXTT16=
EXTT17=
PLAYORDER=
